<svg xmlns="http://www.w3.org/2000/svg" viewBox="0 0 100 100">
  <defs>
    <radialGradient id="chocolateDepth" cx="50%" cy="40%" r="50%">
      <stop offset="0%" stop-color="#5D3A2D" />
      <stop offset="70%" stop-color="#3C1E14" />
      <stop offset="100%" stop-color="#2A120B" />
    </radialGradient>
    <filter id="softGlow">
      <feGaussianBlur in="SourceGraphic" stdDeviation="2" />
    </filter>
  </defs>
  <path d="M25,75 L75,75 L68,92 Q50,96 32,92 Z" fill="#FBCFE8" />
  <path d="M22,75 Q50,68 78,75 L82,75 Q85,75 80,80 Q75,85 75,75 M22,75 Q15,75 18,80 Q25,85 25,75" fill="none" stroke="#F472B6" stroke-width="1.5" />
  <circle cx="50" cy="50" r="38" fill="url(#chocolateDepth)" />
  <ellipse cx="35" cy="30" rx="10" ry="5" fill="white" fill-opacity="0.15" transform="rotate(-30 35 30)" />
  <circle cx="65" cy="25" r="3" fill="white" fill-opacity="0.2" />
  <g opacity="0.9">
    <rect x="45" y="15" width="10" height="4" rx="2" fill="#F472B6" transform="rotate(15 50 17)" />
    <rect x="20" y="40" width="8" height="4" rx="2" fill="#34D399" transform="rotate(-40 24 42)" />
    <rect x="70" y="35" width="12" height="4" rx="2" fill="#F472B6" transform="rotate(80 76 37)" />
    <rect x="40" y="30" width="6" height="3" rx="1.5" fill="#10B981" />
    <rect x="60" y="60" width="10" height="4" rx="2" fill="#F472B6" transform="rotate(-15 65 62)" />
    <rect x="30" y="65" width="12" height="4" rx="2" fill="#34D399" transform="rotate(45 36 67)" />
  </g>
  <g>
    <circle cx="38" cy="52" r="4.5" fill="#1A0A05" />
    <circle cx="39.5" cy="50.5" r="1.5" fill="white" fill-opacity="0.7" />
    <circle cx="62" cy="52" r="4.5" fill="#1A0A05" />
    <circle cx="63.5" cy="50.5" r="1.5" fill="white" fill-opacity="0.7" />
    <path d="M45,64 Q50,69 55,64" stroke="white" stroke-width="2" fill="none" stroke-linecap="round" opacity="0.9" />
    <circle cx="28" cy="62" r="5" fill="#F472B6" fill-opacity="0.4" filter="url(#softGlow)" />
    <circle cx="72" cy="62" r="5" fill="#F472B6" fill-opacity="0.4" filter="url(#softGlow)" />
  </g>
</svg>
